# xmcd
#
# Track frame offsets: 
#        150
#        15356
#        32509
#        46792
#        63901
#        81497
#        95845
#        119603
#        132500
#        149462
#        166742
#
# Disc length: 2446 seconds
#
# Revision: 0
# Processed by: cddbd v1.5.2PL0 Copyright (c) Steve Scherf et al.
# Submitted via: ExactAudioCopyFreeDBPlugin 1.0
#
DISCID=91098c0b
DTITLE=David Poe - God and The Girl
DYEAR=2014
DGENRE=Blues
TTITLE0=Honey Moon
TTITLE1=Lonely Like Me
TTITLE2=Let There Be No Longing
TTITLE3=Taffeta
TTITLE4=Wild One
TTITLE5=When I Fly
TTITLE6=World Above The World
TTITLE7=Remember
TTITLE8=Thank You (Big Bloody Heart)
TTITLE9=The Devil
TTITLE10=These Are The Days
EXTD=
EXTT0=
EXTT1=
EXTT2=
EXTT3=
EXTT4=
EXTT5=
EXTT6=
EXTT7=
EXTT8=
EXTT9=
EXTT10=
PLAYORDER=
